<svg width="16" height="18" viewBox="0 0 16 18" fill="none" xmlns="http://www.w3.org/2000/svg">
<path d="M3.85 13L6.51875 9.95L8.26875 11.95L11.375 8.425V10H13.125V5H8.75V7H10.1281L8.26875 9.125L6.51875 7.125L2.625 11.6L3.85 13ZM1.75 18C1.26875 18 0.856771 17.8042 0.514062 17.4125C0.171354 17.0208 0 16.55 0 16V2C0 1.45 0.171354 0.979167 0.514062 0.5875C0.856771 0.195833 1.26875 0 1.75 0H14C14.4812 0 14.8932 0.195833 15.2359 0.5875C15.5786 0.979167 15.75 1.45 15.75 2V16C15.75 16.55 15.5786 17.0208 15.2359 17.4125C14.8932 17.8042 14.4812 18 14 18H1.75ZM1.75 16H14V2H1.75V16Z" fill="black" fill-opacity="0.5"/>
</svg>
