<svg width="35" height="29" viewBox="0 0 35 29" fill="none" xmlns="http://www.w3.org/2000/svg">
<path d="M5.71552 23.4967C6.02002 23.4967 6.33178 23.4857 6.64592 23.4751C7.67817 23.4387 8.7463 23.4016 9.70484 23.7533C9.86284 23.8113 10.0217 23.8717 10.1809 23.9321C11.028 24.3129 11.9233 24.5377 12.8329 24.5967C13.0275 24.5974 13.222 24.5806 13.4144 24.5469C13.4652 24.5384 13.5045 24.492 13.5105 24.434C13.5165 24.3761 13.4875 24.3208 13.4398 24.2992C13.1703 24.1747 12.9 24.0487 12.629 23.9214C11.4041 23.3485 10.1377 22.7559 8.86747 22.3188V22.3185C8.15183 22.1177 7.41112 22.0594 6.678 22.1455C5.99016 22.2272 5.29536 22.1768 4.62201 21.997C4.06407 21.7939 3.52001 21.5444 2.99438 21.2504L2.68142 21.0867C2.14039 20.8146 1.5583 20.6644 0.967091 20.6438C0.929028 20.6414 0.892174 20.6595 0.868011 20.6928C0.844448 20.7271 0.8375 20.7724 0.849584 20.8136C1.05289 21.5122 1.45164 21.601 2.00386 21.7238L2.11563 21.7492C2.22801 21.7756 2.33917 21.9853 2.38147 22.1726C2.68597 23.5211 4.52352 23.508 5.51471 23.4977L5.71552 23.4967Z" fill="#FF2A00"/>
<path d="M4.43232 13.3023C4.48446 13.3381 4.5348 13.3739 4.58935 13.4047C5.71997 14.0312 7.06877 13.6809 8.28992 13.7286C10.0277 13.798 11.761 13.8884 13.4985 13.9549L13.4988 13.9553C17.0706 14.143 20.6504 14.0673 24.212 13.7286C25.8018 13.5836 27.3739 13.9072 28.9612 13.9383C30.3397 13.9647 31.9 13.8526 32.8416 12.6415C33.5985 11.6109 33.9176 10.2997 33.7241 9.01516C33.422 6.42163 32.0571 3.6325 30.0849 1.99568C27.7943 0.0977657 24.4166 -0.0365995 21.6232 0.00607281C18.3047 0.0562992 14.786 -0.0702089 11.5129 0.537532C8.77215 1.04513 6.14949 2.54595 4.50043 4.95496C3.66554 6.17486 2.97901 7.61632 2.95592 9.15076C2.93794 10.3445 3.20375 12.127 4.12283 13.0467H4.12313C4.26727 13.0555 4.39074 13.1575 4.43239 13.3022L4.43232 13.3023ZM28.9934 3.98352C29.1993 3.92984 29.3998 3.85481 29.5915 3.75938C29.5553 3.72108 29.5127 3.68969 29.4666 3.66647C29.3707 3.6266 29.2673 3.6109 29.1645 3.62126C29.1193 3.62817 29.0761 3.63539 29.0351 3.6401C28.994 3.64481 28.9508 3.65893 28.9191 3.66176C28.8529 3.67118 28.8097 3.66647 28.7983 3.64261C28.7869 3.61844 28.8049 3.5792 28.8505 3.52584C28.9188 3.4483 29.0027 3.38834 29.0959 3.34942C29.2493 3.28412 29.4189 3.27282 29.579 3.31802C29.7776 3.3852 29.9446 3.52929 30.0455 3.72046L30.1432 3.89657L29.9862 3.98729L29.9559 4.00362L29.9562 4.00393C29.6742 4.18945 29.3449 4.2808 29.0123 4.26605C28.762 4.23434 28.6197 4.17124 28.6278 4.1182C28.6356 4.06169 28.7815 4.0237 28.9934 3.98352ZM28.6476 9.83775C28.6566 9.93255 28.6611 10.0308 28.6749 10.1259L28.7114 10.2618L28.7294 10.3287L28.7615 10.388C28.914 10.6903 29.2415 10.8479 29.5598 10.7716C29.8495 10.722 30.1219 10.593 30.3488 10.3975C30.756 10.0616 30.8378 9.6946 30.9038 9.71846C30.9289 9.72568 30.9268 9.81609 30.8927 9.98749C30.8597 10.0851 30.8201 10.1805 30.7743 10.2722C30.5232 10.7183 30.103 11.0319 29.6185 11.1348C29.3986 11.1828 29.1702 11.1656 28.9592 11.0849C28.7201 10.9948 28.5253 10.8087 28.4177 10.5676L28.3722 10.4772L28.3473 10.3843C28.3335 10.3343 28.3221 10.2869 28.3108 10.2392C28.2424 10.2916 28.1765 10.3419 28.113 10.3896V10.3893C27.976 10.4831 27.8475 10.5905 27.7297 10.7098L27.4978 10.9838L27.4501 10.636C27.3956 10.2455 27.3614 9.91433 27.3227 9.68076C27.2907 9.44721 27.2886 9.31127 27.3204 9.30123C27.3521 9.29118 27.4135 9.41329 27.4954 9.63241V9.63209C27.5745 9.84305 27.6392 10.0593 27.6889 10.28C27.7573 10.2166 27.8301 10.1585 27.9002 10.0967C28.0479 9.98463 28.1843 9.85749 28.3075 9.71717L28.5894 9.348L28.6476 9.83775ZM27.2532 1.32176C27.3626 1.26903 27.4792 1.2345 27.5987 1.21974C27.7555 1.19902 27.9146 1.22728 28.056 1.30073C28.1876 1.36822 28.2841 1.49285 28.32 1.64133C28.3392 1.7377 28.3212 1.83784 28.2697 1.92009C28.231 1.97 28.1993 1.98695 28.1744 1.97471C28.1222 1.95588 28.1312 1.82215 28.065 1.73645C27.9493 1.62815 27.7908 1.58484 27.6389 1.61999C27.6074 1.62282 27.5762 1.62847 27.5457 1.63663C27.573 1.65829 27.6185 1.68874 27.6551 1.71511C27.7024 1.74273 27.7411 1.78417 27.7665 1.8344C27.7821 1.87019 27.7869 1.89781 27.7755 1.91539C27.7644 1.93297 27.739 1.94176 27.7027 1.94176C27.6641 1.93705 27.6185 1.93705 27.5753 1.93454V1.93422C27.4905 1.93454 27.4072 1.91162 27.3338 1.86767C27.2322 1.78323 27.1633 1.663 27.1405 1.52928L27.1019 1.39115L27.2532 1.32176ZM26.6233 11.7962C26.6536 11.6841 26.6776 11.6248 26.6961 11.6248C26.7144 11.6248 26.7234 11.6913 26.7264 11.8103H26.7261C26.7318 11.8759 26.7408 11.9412 26.7534 12.0059C26.7648 12.0417 26.7785 12.0774 26.792 12.1154C26.8172 12.1443 26.8307 12.1848 26.8627 12.2062C26.9718 12.311 27.2131 12.2941 27.472 12.2156C27.7677 12.1123 28.0542 11.9817 28.3275 11.8244L28.4935 11.7318L28.5618 11.9271C28.6484 12.2203 28.8954 12.43 29.1872 12.4585C29.5454 12.479 29.9037 12.4187 30.2379 12.2821C30.5291 12.1798 30.8066 12.0558 31.0833 11.9343C31.3404 11.8373 31.5861 11.7099 31.8156 11.5548C32.0089 11.4211 32.1657 11.2371 32.2705 11.0208C32.3577 10.824 32.4072 10.6112 32.4162 10.3942C32.4282 10.0587 32.4159 9.72246 32.3796 9.38875C32.3592 9.14798 32.3545 9.00922 32.382 9.00515C32.4096 9.00107 32.4593 9.12444 32.5253 9.3605V9.36019C32.623 9.69827 32.6772 10.0483 32.6868 10.4014C32.6958 10.6595 32.6529 10.9169 32.5618 11.1567C32.4447 11.4358 32.2586 11.6769 32.0227 11.8549C31.7773 12.036 31.5112 12.1848 31.231 12.2978C30.9592 12.4243 30.6694 12.5549 30.3599 12.6648C30.1642 12.7351 29.9635 12.7894 29.7594 12.8267C29.5532 12.8691 29.342 12.8748 29.134 12.8434C29.0273 12.8267 28.9227 12.7972 28.8223 12.7552C28.724 12.7078 28.6335 12.644 28.5541 12.5668C28.4765 12.494 28.4103 12.4086 28.3584 12.3138C28.3405 12.2821 28.3282 12.2504 28.3132 12.2162H28.3129C28.0639 12.3364 27.8041 12.4306 27.5374 12.4974C27.3926 12.5307 27.244 12.542 27.0963 12.5304C26.9539 12.5232 26.8197 12.4591 26.7208 12.3518C26.6054 12.1936 26.5692 11.987 26.6234 11.7962L26.6233 11.7962ZM25.7971 3.04955C25.8181 3.08942 25.8363 3.13054 25.8516 3.17324C25.8585 3.21875 25.863 3.26145 25.8651 3.29974H25.8654C25.8615 3.36755 25.8453 3.43379 25.8178 3.495C25.7944 3.53706 25.7686 3.57787 25.7405 3.6168C25.7159 3.64065 25.6892 3.66169 25.6607 3.67989C25.6131 3.7116 25.5789 3.71819 25.5583 3.70155C25.5376 3.68492 25.531 3.64662 25.5355 3.5942C25.5379 3.56532 25.5433 3.53644 25.5517 3.5085C25.5517 3.47585 25.5538 3.4432 25.5583 3.41087C25.5538 3.34401 25.5493 3.29159 25.5106 3.26522C25.4501 3.21939 25.3797 3.18988 25.3059 3.17952C25.1246 3.14813 24.9391 3.15378 24.7599 3.19647C24.6326 3.21311 24.51 3.27495 24.4779 3.22504C24.4507 3.18454 24.469 3.07028 24.644 2.93687V2.93655C24.8609 2.78682 25.1258 2.73188 25.3812 2.78431C25.5478 2.81099 25.6976 2.90672 25.7971 3.04955ZM24.237 0.895441L24.2481 0.852434L24.3299 0.816648C24.5888 0.699247 24.8792 0.68229 25.1489 0.769247C25.3107 0.831402 25.4552 0.934681 25.5697 1.06935L25.6811 1.19806L25.5858 1.31012C25.5136 1.40053 25.4225 1.47242 25.3194 1.51982C25.2421 1.55027 25.1603 1.56565 25.0779 1.56503C24.955 1.56032 24.8867 1.53866 24.8753 1.49816C24.8639 1.45767 24.9278 1.40336 25.0279 1.3456V1.34592C25.0812 1.31892 25.1318 1.28596 25.1786 1.24829C25.1831 1.24578 25.1855 1.24107 25.19 1.23636L25.1903 1.23605C25.1369 1.20121 25.0806 1.1717 25.0219 1.14815C24.8379 1.09447 24.6455 1.07909 24.4555 1.10263C24.46 1.10514 24.46 1.10985 24.4645 1.11236C24.4852 1.12869 24.5349 1.21721 24.5121 1.22443H24.5124C24.5058 1.24075 24.4935 1.25362 24.4783 1.26021C24.4618 1.26429 24.4444 1.25864 24.433 1.24577C24.427 1.23604 24.4135 1.23604 24.4078 1.24577C24.4033 1.24828 24.4054 1.2555 24.401 1.2555H24.3827C24.3635 1.25237 24.3443 1.24766 24.3257 1.24075C24.2877 1.2238 24.2565 1.19335 24.2373 1.15505C24.2155 1.10953 24.2068 1.05806 24.2122 1.00752C24.2188 0.974241 24.2268 0.935943 24.2373 0.89545L24.237 0.895441ZM22.1055 1.55089C22.24 1.39802 22.4282 1.30886 22.6266 1.30353C22.7075 1.30227 22.7881 1.31452 22.8654 1.33931C22.9323 1.35689 22.9952 1.38672 23.0521 1.42753C23.1337 1.47085 23.2029 1.53646 23.2523 1.61745C23.2865 1.67207 23.3 1.71225 23.2841 1.73642C23.2682 1.7606 23.2275 1.76279 23.1681 1.74584C23.1319 1.73674 23.0962 1.72575 23.0611 1.71257C23.0216 1.70033 22.9811 1.69091 22.9404 1.68369C22.8957 1.67207 22.8499 1.66579 22.8037 1.66485C22.7546 1.66108 22.7048 1.6636 22.656 1.67207C22.5556 1.68996 22.4633 1.74082 22.3923 1.8171C22.335 1.87392 22.3084 1.95711 22.3216 2.03872C22.324 2.07043 22.3518 2.09805 22.3761 2.12913C22.4124 2.15299 22.4366 2.19254 22.4807 2.20541C22.5217 2.22425 22.5559 2.25062 22.5922 2.26474C22.6284 2.27887 22.6605 2.29111 22.6878 2.30555C22.7399 2.33412 22.772 2.36237 22.772 2.39125C22.772 2.42013 22.7399 2.44336 22.6764 2.46282C22.6383 2.47318 22.5997 2.48103 22.5604 2.48637C22.5065 2.48888 22.4525 2.48574 22.3989 2.47695C22.3285 2.46439 22.2601 2.44022 22.1966 2.40569C22.1136 2.35452 22.0459 2.28044 22.0009 2.19097C21.9056 1.97562 21.9473 1.72072 22.1058 1.5509L22.1055 1.55089ZM19.9446 0.726214C20.0078 0.642396 20.0869 0.573654 20.1768 0.523741C20.4486 0.379965 20.763 0.351091 21.0545 0.442752C21.2682 0.514324 21.3662 0.614149 21.3503 0.664062C21.3344 0.718997 21.1993 0.716485 21.0159 0.723706V0.72402C20.7899 0.726217 20.5667 0.778328 20.3611 0.87658C20.3191 0.898554 20.2808 0.927748 20.2472 0.962278C20.2562 0.966986 20.2631 0.971695 20.2745 0.976404C20.3176 0.992414 20.3617 1.00623 20.4063 1.0169C20.5861 1.05739 20.718 1.08376 20.7249 1.1409C20.7318 1.19803 20.6179 1.26961 20.3952 1.30068C20.3302 1.3101 20.2643 1.3101 20.1996 1.30068C20.0965 1.29032 20.0012 1.23916 19.9331 1.15754C19.8807 1.09036 19.8576 1.00309 19.8696 0.917081C19.8786 0.847706 19.9044 0.781783 19.9448 0.726221L19.9446 0.726214ZM18.0456 1.93607L18.0615 1.92414H18.0618C18.1786 1.82965 18.315 1.76467 18.4597 1.73422C18.5742 1.71193 18.6917 1.71444 18.8055 1.74144C18.9922 1.78915 19.083 1.86292 19.0773 1.91535C19.0683 1.97248 18.9545 1.99885 18.7974 2.02742L18.7971 2.0271C18.6539 2.04813 18.5164 2.0993 18.3923 2.17747C18.6722 2.25124 18.9155 2.30618 18.9056 2.39187C18.9032 2.43708 18.8304 2.47757 18.7076 2.51085C18.5328 2.54695 18.3533 2.55009 18.1777 2.52027L18.1325 2.51556L18.0935 2.46816C18.0348 2.4126 17.9964 2.33757 17.9845 2.25595C17.9776 2.20227 17.9743 2.14828 17.9755 2.09398L17.9731 1.99164L18.0456 1.93607ZM16.449 1.22129C16.5632 1.02478 16.7346 0.871894 16.938 0.785569C17.1934 0.656548 17.4957 0.685117 17.725 0.859025C17.7939 0.9171 17.841 0.999346 17.8571 1.09038C17.8616 1.15379 17.8502 1.19021 17.8254 1.19994C17.7708 1.2216 17.7001 1.13088 17.582 1.10011V1.0998C17.4142 1.06181 17.2389 1.08253 17.0837 1.15944C16.9614 1.21124 16.8485 1.28469 16.7496 1.37636C16.7645 1.38797 16.7804 1.39864 16.7972 1.40806C16.8245 1.42219 16.8973 1.49125 16.8766 1.50537C16.8781 1.52484 16.8715 1.54398 16.8583 1.5578C16.8428 1.56815 16.8239 1.57067 16.8062 1.56502C16.7999 1.5647 16.7936 1.56282 16.7879 1.56031C16.7834 1.56502 16.7789 1.56721 16.7768 1.57192H16.7765C16.7735 1.57412 16.7717 1.57789 16.772 1.58165L16.7517 1.58824C16.698 1.60143 16.6417 1.59452 16.5925 1.56878C16.5503 1.54963 16.5134 1.5195 16.4856 1.48088C16.4619 1.44321 16.4415 1.40335 16.4253 1.36159L16.4026 1.31168L16.449 1.22129ZM15.63 2.56261C15.6833 2.58082 15.734 2.60562 15.781 2.6367C15.8439 2.67311 15.9021 2.718 15.9539 2.76979C15.995 2.80809 16.0144 2.84137 16.0061 2.86742C15.998 2.89379 15.9653 2.91042 15.9108 2.91733V2.91764C15.8361 2.92267 15.7612 2.91796 15.6878 2.90352C15.6057 2.88939 15.5011 2.87495 15.4738 2.89881V2.89849C15.4589 2.91074 15.4454 2.92424 15.4328 2.93899C15.781 3.0655 16.0606 3.13204 16.063 3.22371C16.0696 3.32385 15.6216 3.43812 15.0825 3.23093L14.8892 3.15685L14.9776 2.96379L15.0028 2.90917L15.0031 2.90949C15.0381 2.83164 15.0837 2.75943 15.1382 2.69539C15.2045 2.61817 15.2917 2.56512 15.3882 2.54283C15.4691 2.52651 15.5527 2.53342 15.63 2.56324L15.63 2.56261ZM14.0358 1.22129C14.0888 1.1246 14.1628 1.04204 14.2518 0.980512C14.529 0.801264 14.867 0.757323 15.1775 0.860596C15.4052 0.93468 15.505 1.03199 15.4936 1.0819C15.4801 1.13872 15.3345 1.13402 15.1412 1.14123V1.14155C14.9063 1.13558 14.674 1.1946 14.4678 1.31295C14.4256 1.34277 14.3887 1.37981 14.3585 1.42282C14.3336 1.4608 14.3336 1.48215 14.3282 1.48215C14.3228 1.48215 14.3213 1.49627 14.3531 1.51574C14.3896 1.53488 14.4289 1.54713 14.4693 1.55152C14.6491 1.57758 14.7945 1.56094 14.8107 1.61839C14.8241 1.66359 14.7286 1.78036 14.4831 1.83499C14.4079 1.851 14.3303 1.85005 14.2554 1.83247C14.1373 1.80611 14.0396 1.72041 13.9938 1.60363C13.9515 1.47649 13.9671 1.33586 14.0357 1.22191L14.0358 1.22129ZM12.796 1.80329C12.8626 1.76279 12.9348 1.7336 13.01 1.71759C13.1257 1.69059 13.2464 1.70472 13.3534 1.75808C13.4277 1.79764 13.4934 1.85289 13.5467 1.92006C13.6264 2.02522 13.6471 2.10841 13.6174 2.15361C13.5878 2.1988 13.4967 2.18939 13.3897 2.15141C13.3354 2.13477 13.2782 2.11562 13.2285 2.1037V2.10338C13.1805 2.09773 13.132 2.09993 13.0849 2.1106C13.0765 2.11217 13.0681 2.11468 13.06 2.11782C13.0487 2.30114 13.0055 2.44681 12.9351 2.45151C12.8488 2.45622 12.7508 2.28011 12.6936 1.97499L12.6708 1.86072L12.796 1.80329ZM12.8461 12.4312C13.5491 12.6051 14.4382 12.488 15.443 12.4717C16.4961 12.4083 17.547 12.9777 18.6204 12.9146C18.8401 12.8989 19.0543 12.8374 19.2506 12.7332C19.4343 12.6221 19.5925 12.4701 19.7145 12.288L19.8557 12.0981L20.0127 12.2648H20.0124C20.1961 12.412 20.4226 12.4886 20.6537 12.4814C20.9081 12.4905 21.1625 12.4729 21.4133 12.4293C21.6555 12.3882 21.8943 12.3285 22.1277 12.2507C22.3411 12.1866 22.5446 12.0906 22.7319 11.966L22.8613 11.8712L22.9545 11.9952C23.2431 12.3875 23.6833 12.6249 24.1559 12.6431C24.5212 12.6635 24.8793 12.5316 25.1523 12.2761C25.3228 12.1013 25.4516 11.8865 25.5274 11.6492C25.5682 11.4803 25.6003 11.3849 25.6161 11.3849C25.632 11.3849 25.6341 11.4825 25.6227 11.6696H25.623C25.5784 11.9459 25.4609 12.2036 25.2838 12.4136C24.9895 12.7372 24.5802 12.9193 24.1535 12.9162C23.644 12.9221 23.155 12.7055 22.8044 12.3182C22.6246 12.4293 22.434 12.5203 22.2359 12.5897C21.9875 12.6798 21.7328 12.7492 21.4738 12.7972C21.1978 12.8503 20.9174 12.8744 20.6369 12.8688C20.4846 12.8634 20.3336 12.8402 20.1865 12.7994C20.0876 12.773 19.9929 12.7303 19.9066 12.6729C19.7759 12.8396 19.6162 12.9793 19.4358 13.0841C19.1913 13.2166 18.9234 13.296 18.6489 13.3174C18.0711 13.3249 17.4958 13.2439 16.9407 13.0769C16.8089 13.0452 16.6791 13.0135 16.5518 12.9821C16.4244 12.9504 16.3039 12.925 16.1742 12.9033V12.903C15.9329 12.8619 15.6887 12.8418 15.4442 12.8437C14.4681 12.8364 13.547 12.9319 12.7807 12.7077C12.4256 12.6173 12.1059 12.4155 11.8637 12.1289C11.692 11.9094 11.5755 11.6486 11.5251 11.3695C11.4637 11.1426 11.4598 10.9027 11.5137 10.6739C11.5479 10.6739 11.5545 10.9288 11.6684 11.3315H11.6681C11.7445 11.6131 11.8955 11.8664 12.1041 12.0614C12.3126 12.2563 12.5701 12.385 12.8458 12.4324L12.8461 12.4312ZM10.8353 1.55657C10.9117 1.35221 11.0891 1.20844 11.2971 1.18239C11.3735 1.17077 11.4511 1.17234 11.5269 1.1871L11.6246 1.20876C11.6549 1.22069 11.6813 1.23262 11.7088 1.24454H11.7091C11.7901 1.27468 11.8626 1.32553 11.9204 1.39208C11.9615 1.43729 11.9809 1.47307 11.9681 1.49944C11.9555 1.52581 11.9204 1.53522 11.8611 1.53522C11.802 1.53522 11.7154 1.51356 11.636 1.51859C11.6153 1.51639 11.595 1.51639 11.5755 1.51388L11.5051 1.5211L11.5054 1.52078C11.4592 1.52267 11.4134 1.53052 11.369 1.54464C11.2956 1.56379 11.2339 1.61621 11.2006 1.68747C11.1778 1.73989 11.1985 1.7873 11.2551 1.84569C11.2905 1.87237 11.3289 1.89497 11.369 1.91255C11.4089 1.93484 11.452 1.95085 11.4964 1.95995C11.5782 1.99166 11.6531 2.00045 11.7077 2.02336C11.7622 2.04628 11.794 2.06637 11.7982 2.09493C11.8023 2.1235 11.7754 2.15207 11.7187 2.17844L11.719 2.17813C11.642 2.21893 11.5572 2.24154 11.4712 2.24499C11.408 2.25315 11.3442 2.25001 11.2821 2.23526C11.2039 2.22145 11.1287 2.19413 11.0592 2.15396C10.9708 2.09871 10.8998 2.01772 10.8545 1.92072C10.8305 1.8639 10.8152 1.80363 10.8092 1.7421C10.8089 1.679 10.8176 1.61653 10.8353 1.55657ZM10.2875 11.4982C10.3055 11.3767 10.3238 11.2505 10.3397 11.1218C10.3798 10.7545 10.4436 10.391 10.5308 10.0328C10.6109 9.73428 10.7328 9.45019 10.8932 9.18933C10.966 9.08198 11.0271 8.98215 11.0909 8.90461C11.1593 8.82833 11.2183 8.76429 11.2683 8.71469C11.3708 8.61738 11.4344 8.56966 11.4547 8.58818C11.4751 8.60671 11.4502 8.6858 11.3888 8.80949C11.357 8.8729 11.316 8.94762 11.268 9.0308C11.2201 9.11399 11.1838 9.21915 11.1317 9.3287V9.32902C11.0154 9.5836 10.9285 9.85137 10.8722 10.1273C10.8084 10.4396 10.7652 10.7915 10.7176 11.178C10.69 11.4043 10.6492 11.6284 10.6151 11.8406L10.5719 12.0955L10.3535 11.9832H10.3538C10.0903 11.8444 9.8569 11.6498 9.66901 11.4115C9.52547 11.2285 9.4059 11.0257 9.31421 10.8088C9.16317 10.4393 9.14369 10.2133 9.18025 10.1964C9.2255 10.1747 9.33129 10.3863 9.52368 10.6873H9.52338C9.72236 11.0094 9.98246 11.2853 10.2875 11.4982ZM8.51318 2.29349C8.54644 2.24609 8.5845 2.20309 8.62705 2.16479C8.66961 2.13653 8.71365 2.11111 8.75891 2.08851C8.90155 2.03294 9.05678 2.02321 9.20452 2.05994C9.29472 2.07783 9.38013 2.11613 9.45504 2.172C9.50478 2.20999 9.52995 2.24577 9.52336 2.27183C9.51677 2.2982 9.47991 2.31484 9.41638 2.32425V2.32457C9.33697 2.32551 9.25816 2.3321 9.17965 2.3434C9.08495 2.35062 8.99265 2.37731 8.90785 2.4222C8.84432 2.45013 8.80716 2.51982 8.81735 2.59108C8.84701 2.67459 8.91294 2.73862 8.99475 2.76279C9.043 2.78634 9.09454 2.80235 9.14728 2.8102C9.19523 2.82495 9.24497 2.83374 9.29502 2.83656C9.48621 2.86293 9.62255 2.86827 9.63634 2.92728C9.64773 2.97468 9.53625 3.07011 9.3088 3.12034H9.30851C9.24617 3.13729 9.18205 3.14514 9.11762 3.14388C9.03941 3.14671 8.96119 3.13698 8.88538 3.11563C8.79188 3.09146 8.70408 3.04688 8.62856 2.9841C8.53386 2.90688 8.46824 2.79733 8.44216 2.67458C8.41369 2.54274 8.43947 2.40461 8.51318 2.2938L8.51318 2.29349ZM6.26358 4.09634C6.27707 4.03293 6.28876 3.96983 6.30674 3.9105C6.32891 3.84081 6.36367 3.77646 6.40922 3.72058C6.45657 3.66125 6.52129 3.62013 6.59322 3.6035C6.64056 3.59408 6.68911 3.59251 6.73676 3.59879C6.86861 3.62516 6.95761 3.65372 6.9642 3.70395C6.97079 3.75386 6.90037 3.81351 6.76193 3.85871C6.6912 3.88288 6.67323 3.90894 6.67323 3.93499L6.67293 3.93468C6.66783 3.94943 6.66484 3.96481 6.66394 3.9802C6.75923 4.01598 6.86172 4.02289 6.94802 4.05397C7.03463 4.06244 7.12033 4.07594 7.20544 4.09446C7.34868 4.09917 7.45776 4.12805 7.47724 4.18016C7.49642 4.23227 7.40892 4.30416 7.23391 4.37824C7.13052 4.40272 7.02533 4.41779 6.91985 4.42344C6.79039 4.41999 6.66184 4.39864 6.53777 4.36034C6.48563 4.34151 6.43289 4.32456 6.38315 4.30572L6.23211 4.2533L6.26358 4.09634ZM3.95738 10.7855C3.97086 10.671 3.99154 10.6116 4.00712 10.6116C4.02271 10.6116 4.03919 10.675 4.05717 10.7855C4.08624 10.9381 4.13118 11.0866 4.19172 11.2285C4.27802 11.4435 4.41407 11.6325 4.58728 11.7788C4.78835 11.9502 5.07633 11.9514 5.27861 11.7813L5.44013 11.6548L5.52434 11.855C5.66488 12.1837 5.9265 12.4389 6.24924 12.5626L6.37869 12.6128L6.51504 12.6367C6.60823 12.6546 6.70263 12.6618 6.79733 12.6584C6.89322 12.6511 6.98911 12.6386 7.08381 12.6201C7.08381 12.6179 7.19319 12.5884 7.19978 12.5701V12.5698C7.21147 12.5595 7.22466 12.5507 7.23874 12.5438L7.28759 12.5005C7.37749 12.4044 7.45749 12.2992 7.52642 12.1859C7.5492 12.1542 7.56957 12.1225 7.59684 12.0911C7.62471 12.0531 7.65588 12.0183 7.69004 11.9863C7.73319 11.9467 7.78233 11.9144 7.83567 11.8915C7.8986 11.8695 7.96573 11.8635 8.03136 11.8748C8.20367 11.9244 8.3547 12.0346 8.45898 12.1868C8.50004 12.2368 8.5363 12.2845 8.57046 12.3347C8.60702 12.2942 8.64118 12.2584 8.67534 12.2201H8.67504C8.74486 12.1523 8.8054 12.0745 8.85454 11.9891L8.99778 11.629L9.15931 11.9627V11.963C9.28397 12.2399 9.50452 12.4571 9.77603 12.5704C10.0053 12.6574 10.2411 12.7236 10.4811 12.7682C10.895 12.8561 11.1269 12.9613 11.1152 12.9971C10.8935 13.0187 10.6702 13.0099 10.4509 12.9707C10.1899 12.9581 9.93095 12.9142 9.6795 12.8398C9.51469 12.7864 9.36066 12.7007 9.22671 12.5868C9.14969 12.519 9.07957 12.4433 9.01754 12.3604L8.92884 12.4678H8.92854C8.84912 12.5551 8.77481 12.6474 8.70589 12.744L8.56475 12.9653L8.40563 12.7462C8.3361 12.6408 8.26089 12.5397 8.18028 12.4433C8.12574 12.3677 8.05502 12.3064 7.97351 12.2647C7.96661 12.2672 7.9756 12.2531 7.94144 12.2863C7.92286 12.3027 7.90608 12.3215 7.8914 12.3422C7.87552 12.3611 7.85484 12.3921 7.83686 12.4185C7.75295 12.5554 7.65556 12.6828 7.54558 12.798C7.51801 12.8219 7.49314 12.8454 7.46587 12.8696C7.27587 13.0159 7.04154 13.0862 6.80629 13.0671C6.68702 13.0699 6.56805 13.0576 6.45148 13.0316L6.27888 12.9933L6.11496 12.9267H6.11466C5.76225 12.7798 5.47067 12.507 5.29151 12.1567C5.16684 12.2138 5.0311 12.2374 4.89595 12.2261C4.71735 12.2044 4.54953 12.1253 4.41558 11.9997C4.2214 11.8095 4.08085 11.5669 4.00953 11.2985C3.96398 11.1321 3.94629 10.9585 3.95738 10.7855Z" fill="#FF2A00"/>
<path d="M5.52976 21.5344C6.67846 21.5591 7.89451 21.2822 9.00296 21.7336C11.3006 22.6705 13.8761 23.4299 15.9784 24.8326C16.5959 25.2178 17.0763 25.8158 17.3426 26.5314C17.4762 26.8076 17.5504 27.113 17.5598 27.4247C17.5353 28.0898 18.1365 27.2207 18.2329 27.0605C18.6748 26.3178 19.0115 25.5168 19.4221 24.7574H19.4224C19.5814 24.4632 19.767 24.1867 19.9763 23.9321C19.9855 23.7627 20.1037 23.6239 20.2589 23.5996C20.5643 23.2709 20.885 22.9592 21.2196 22.6653C22.9225 21.1507 24.9798 20.0086 27.0091 19.0906C28.1903 18.5592 29.4315 18.1995 30.6999 18.0201C31.2754 17.9274 31.858 17.897 32.4388 17.9303C32.9794 17.9667 33.6392 18.1269 34.2023 18.0032C33.4719 16.7153 32.615 15.5162 31.6469 14.4269C31.4757 14.5046 31.2996 14.5679 31.1195 14.6165C28.7903 15.2329 26.4258 14.4195 24.0767 14.6408C19.5692 15.1457 15.0551 14.9465 10.539 14.7374C9.53572 14.6891 8.52656 14.604 7.52125 14.6453C6.88129 14.7038 6.23778 14.7006 5.59812 14.6354C5.10211 14.5634 4.62914 14.3645 4.21831 14.0557C3.1001 14.8953 2.09359 15.8971 1.22775 17.0331C0.772239 17.6182 0.207081 18.3268 0.0365162 19.0951C-0.237205 20.3376 1.09328 20.0901 1.84705 20.1436C3.14498 20.2344 4.16126 21.5054 5.52986 21.5344L5.52976 21.5344ZM26.5575 17.5568L26.5572 17.5565C26.6196 17.5917 26.6876 17.6134 26.7574 17.6211C27.0222 17.6185 27.28 17.5249 27.4928 17.3544C27.7982 17.1626 28.1322 16.8739 28.5921 16.6312L28.7742 16.5509C28.846 16.5292 28.8995 16.5074 28.9897 16.4863C29.1129 16.4697 29.2406 16.4499 29.3689 16.4307C29.5081 16.4259 29.6536 16.4285 29.7975 16.4285C29.9412 16.4355 30.0757 16.4528 30.2193 16.4649H30.219C30.8312 16.5842 31.4526 16.6363 32.0745 16.62C31.8478 16.3514 31.5883 16.1177 31.3027 15.9258C31.0379 15.7391 30.8857 15.6249 30.9013 15.5911C30.9167 15.5572 31.092 15.6131 31.3905 15.7522H31.3902C31.8236 15.9425 32.2034 16.252 32.4922 16.6501L32.6222 16.8394L32.402 16.9097C31.7402 17.121 30.9551 16.9701 30.1765 16.8732C30.0441 16.8611 29.9084 16.8442 29.7816 16.8368L29.4159 16.8298C29.2859 16.8442 29.16 16.8621 29.0343 16.8758C29.0009 16.8828 28.9356 16.9027 28.8886 16.9145C28.8369 16.9337 28.7831 16.9557 28.7337 16.9752C28.3208 17.1687 27.9575 17.4386 27.6184 17.6087L27.619 17.609C27.3509 17.7839 27.032 17.8437 26.7254 17.7762C26.6424 17.7468 26.5685 17.6931 26.512 17.6208C26.4783 17.5748 26.4626 17.5457 26.4715 17.5335C26.4807 17.5214 26.5073 17.5326 26.5566 17.5565L26.5575 17.5568ZM17.9635 16.0204C18.0758 16.0323 18.2103 16.03 18.3628 16.0422C18.5201 16.0422 18.6995 16.047 18.899 16.0422C19.3746 16.0192 19.8508 16.0259 20.3258 16.0617C20.3932 16.0687 20.463 16.0834 20.5342 16.094L20.6397 16.1132L20.6935 16.1231L20.7204 16.1279H20.7272L20.7317 16.1301L20.7473 16.1349L20.7606 16.1375C20.8951 16.1857 21.0255 16.2174 21.1709 16.2829C21.4763 16.3971 21.7296 16.6203 21.9628 16.6695L21.9634 16.6698C22.024 16.6836 22.0855 16.6906 22.1476 16.6919L22.345 16.6775C22.4789 16.6538 22.6116 16.6215 22.742 16.5806C23.0181 16.486 23.2829 16.3939 23.5363 16.3066C24.0388 16.1272 24.4966 15.9741 24.8915 15.8676V15.8673C25.2001 15.7765 25.5144 15.7084 25.8315 15.6636C26.0583 15.6294 26.1839 15.6246 26.1889 15.6514C26.1939 15.6783 26.079 15.7365 25.8658 15.819C25.6575 15.9063 25.3432 15.9913 24.9705 16.1467C24.5936 16.2849 24.1449 16.4671 23.6468 16.6621C23.3956 16.7594 23.1331 16.8591 22.8594 16.9608V16.9605C22.7086 17.0116 22.5549 17.0519 22.3994 17.082C22.2262 17.1072 22.0506 17.1021 21.8789 17.0673C21.792 17.0442 21.7075 17.0135 21.6253 16.9752C21.5555 16.9339 21.4837 16.8952 21.4145 16.8562L21.2259 16.7469C21.1662 16.7146 21.1047 16.6865 21.0441 16.657C20.925 16.5992 20.776 16.5576 20.6492 16.5093C20.5895 16.4949 20.5301 16.4825 20.4719 16.4703C20.4068 16.4585 20.3462 16.4412 20.2833 16.4316C19.7769 16.3562 19.2963 16.361 18.8898 16.3274C18.6879 16.313 18.5026 16.2884 18.3424 16.2666C18.181 16.2327 18.0394 16.2088 17.9321 16.1723C17.7166 16.0969 17.6002 16.0412 17.607 16.0144C17.6141 15.9872 17.7391 15.9936 17.9635 16.0204ZM17.4946 23.5414C17.5124 23.5318 17.5665 23.6019 17.654 23.7381C17.7367 23.8346 17.8491 23.9712 17.9859 24.1358C18.0846 23.9612 18.1878 23.7525 18.3315 23.5219V23.5222C18.4287 23.356 18.56 23.2166 18.7151 23.1142C18.8644 23.0266 19.0371 22.9966 19.2041 23.0295C19.5676 22.3958 20.0498 21.8519 20.62 21.4324C21.5679 20.7465 22.5792 20.1694 23.6377 19.7093C24.4385 19.3473 24.93 19.1241 24.9548 19.1727C24.9797 19.2213 24.5239 19.5417 23.752 19.9711V19.9715C22.7461 20.5 21.7734 21.0992 20.8396 21.7649C20.277 22.1732 19.8 22.7049 19.4396 23.3255L19.3654 23.4636L19.2354 23.4128C19.1154 23.3581 18.9797 23.3597 18.8611 23.4176C18.7429 23.4889 18.6412 23.588 18.5632 23.7076C18.3882 23.9477 18.2445 24.2051 18.0867 24.4014L17.9903 24.5204L17.9117 24.3992H17.9114C17.7778 24.2077 17.6569 24.0056 17.5502 23.7949C17.4946 23.6408 17.4775 23.5525 17.4946 23.5413L17.4946 23.5414ZM6.10825 15.8043C6.49962 15.6227 6.91726 15.5169 7.34239 15.4913H7.35569L7.36249 15.4939C7.44909 15.506 7.53216 15.5374 7.60724 15.586C7.64803 15.6093 7.68439 15.6403 7.71454 15.678C7.74617 15.7091 7.77396 15.7442 7.7979 15.7823C7.82273 15.8187 7.84283 15.8529 7.86087 15.8817L7.86057 15.882C7.87653 15.9089 7.89367 15.9348 7.9123 15.9597C7.92796 15.9866 7.94393 15.9843 7.95486 16.001C7.96343 16.0061 7.9723 16.0102 7.98176 16.0131C8.56822 15.946 9.14727 15.8194 9.71155 15.6345C10.0083 15.5521 10.3137 15.5114 10.6202 15.513C10.899 15.513 11.1774 15.5319 11.4541 15.5687C11.9791 15.6368 12.4346 15.734 12.8204 15.8021C13.5901 15.9428 14.0713 15.9549 14.0746 16.0179C14.079 16.0665 13.5833 16.1586 12.7891 16.0886C12.3941 16.0592 11.9274 15.9891 11.419 15.9431C11.1633 15.9262 10.9127 15.9041 10.6227 15.9137C10.3449 15.9188 10.0685 15.9594 9.79948 16.0349C9.2018 16.2306 8.58487 16.3489 7.96179 16.3869L7.93696 16.3847L7.92809 16.3821C7.87104 16.3645 7.81664 16.3383 7.76669 16.3044C7.72383 16.2712 7.686 16.2309 7.65437 16.1855C7.62924 16.1487 7.60618 16.1107 7.5849 16.0713C7.56687 16.0371 7.54884 16.0067 7.53554 15.9815C7.4912 15.8977 7.41641 15.8376 7.32921 15.8165C6.93962 15.8194 6.55183 15.8721 6.17369 15.9741C5.89318 16.0592 5.72942 16.1126 5.71789 16.0784C5.70459 16.0521 5.83938 15.9428 6.10837 15.8043H6.10825ZM2.05419 18.2338C2.09882 18.126 2.16651 18.0314 2.25164 17.9572C2.30751 17.9086 2.34092 17.8891 2.35037 17.899C2.38023 17.9182 2.25637 18.0445 2.18898 18.2856H2.18869C2.16888 18.3466 2.17272 18.4138 2.19992 18.4717C2.22711 18.5295 2.275 18.5727 2.33234 18.5912C2.51236 18.6536 2.70509 18.6603 2.88866 18.6104L3.00542 18.5836L3.03912 18.7243V18.7246C3.06897 18.8765 3.13282 19.0184 3.22534 19.1374C3.33175 19.2579 3.47068 19.3394 3.62232 19.3701C4.00689 19.4315 4.3997 19.3839 4.7621 19.232L4.97522 19.1543L4.99768 19.397C5.01158 19.6317 5.15376 19.8344 5.3589 19.9121C5.6137 20.002 5.88092 20.0422 6.14846 20.031C6.52327 20.0336 6.89572 20.0045 7.27499 20.031C7.46151 20.0422 7.64626 20.0732 7.82687 20.1234C7.99625 20.1589 8.16326 20.205 8.32731 20.2616C8.8919 20.4624 9.44613 20.6958 9.98764 20.9609C10.4476 21.1719 10.8215 21.3247 11.0849 21.4219C11.345 21.5067 11.4928 21.5696 11.4928 21.5991C11.4884 21.6259 11.3338 21.6182 11.0488 21.577V21.5773C10.6551 21.4958 10.2679 21.3804 9.89096 21.2323C9.41446 21.0552 8.85667 20.8099 8.23979 20.6283C8.07987 20.5768 7.9173 20.5362 7.75265 20.5068C7.58949 20.4643 7.42277 20.439 7.25487 20.4314C6.91139 20.4122 6.53687 20.4435 6.14665 20.4387L6.14636 20.439C5.83007 20.4518 5.51408 20.4 5.21551 20.2859C5.1357 20.2497 5.06033 20.2034 4.99086 20.1478C4.91844 20.0915 4.85547 20.0227 4.80464 19.9438C4.75704 19.8648 4.71773 19.78 4.68787 19.6915C4.6858 19.6819 4.68344 19.6694 4.68137 19.6573C4.31247 19.7765 3.922 19.7922 3.54599 19.7033C3.33257 19.6493 3.14131 19.5217 3.00091 19.3398C2.90691 19.2087 2.84099 19.0571 2.80789 18.8953C2.61309 18.9161 2.41711 18.879 2.24005 18.7888C2.13866 18.7339 2.06239 18.6363 2.02929 18.519C2.00564 18.424 2.01428 18.3227 2.05419 18.2338Z" fill="#FF2A00"/>
<path d="M33.3553 23.2803C33.1795 23.4118 32.9953 23.5297 32.804 23.6339C32.1618 23.9755 31.5689 23.8314 30.8759 23.7781C29.8545 23.7011 28.9608 24.2306 27.9461 24.2785C26.9675 24.345 25.9851 24.3133 25.0119 24.1847C24.192 24.0215 23.3468 24.0804 22.5542 24.3555C21.964 24.5681 21.3283 24.5957 20.7238 24.435C20.5534 24.6648 20.4003 24.9085 20.2658 25.1636C19.6983 26.2534 18.9927 28.6732 17.472 28.4108C17.2613 28.3746 17.1566 28.11 17.1157 27.9224C17.002 27.3954 17.0636 26.9819 16.7844 26.46C16.326 25.6037 15.3639 25.1189 14.4514 24.7329V24.7332C14.4108 24.7836 14.359 24.8226 14.3007 24.8464C12.7012 25.4814 11.2167 24.7431 9.67363 24.2931C8.33892 23.9062 6.91848 24.0671 5.52728 24.077C5.49708 24.803 5.35715 25.7194 5.89054 26.2163C6.33843 26.5994 6.85151 26.8884 7.40191 27.0675C8.34375 27.4262 9.2356 28.0273 10.1864 28.3186C12.8393 29.1336 15.9894 29.0138 18.7306 28.9317V28.9314C21.6962 28.8085 24.6517 28.4871 27.5795 27.9694C29.234 27.6949 35.4042 26.0814 33.3735 23.3075C33.3672 23.2996 33.3627 23.2901 33.3559 23.2803L33.3553 23.2803ZM12.4391 28.1994C12.022 28.1744 11.6067 28.1237 11.1953 28.0476C10.681 27.9602 10.1796 27.8008 9.70452 27.5739C9.32331 27.4012 8.99443 27.1207 8.75343 26.7636C8.60244 26.5199 8.52261 26.2344 8.5244 25.9432C8.3776 26.0151 8.21854 26.0544 8.05679 26.0588C7.9345 26.0573 7.81431 26.0233 7.70727 25.96C7.61608 25.8966 7.54732 25.8028 7.51203 25.6931C7.47944 25.5524 7.4923 25.4041 7.54821 25.272C7.58708 25.1928 7.61429 25.1541 7.63013 25.1589C7.64598 25.1636 7.65076 25.2118 7.64119 25.3008L7.64149 25.3011C7.63222 25.4105 7.64687 25.5207 7.68455 25.6231C7.71474 25.6798 7.76079 25.7252 7.81611 25.753C7.89025 25.7809 7.96948 25.7908 8.04782 25.7819C8.25591 25.7508 8.45085 25.6554 8.60812 25.5081L8.91249 25.2337L8.86704 25.6665C8.82339 25.9752 8.89156 26.2895 9.0575 26.5469C9.27068 26.8365 9.54933 27.0641 9.86776 27.2082C10.3156 27.4187 10.7836 27.5774 11.2634 27.682C11.7104 27.7853 12.1212 27.8553 12.4659 27.9155C13.1536 28.0265 13.5869 28.1057 13.5869 28.1656C13.5821 28.2185 13.1465 28.2403 12.4391 28.1994ZM16.3253 28.0673L16.3139 28.3414L16.0643 28.2283C15.9695 28.1801 15.8651 28.157 15.7602 28.1608C15.6579 28.1681 15.5354 28.1928 15.4403 28.1969C15.2337 28.2064 15.1159 28.149 15.118 28.1056C15.118 28.0527 15.2271 28.0166 15.3892 27.9459C15.4926 27.8943 15.6005 27.8524 15.7112 27.8211C15.7898 27.8008 15.8711 27.7941 15.9521 27.8014C15.9524 27.7944 15.9515 27.7871 15.9497 27.7802C15.9297 27.4912 15.8451 27.2117 15.7022 26.9645C15.672 26.9211 15.6478 26.878 15.625 26.8368C15.6023 26.7956 15.5706 26.762 15.5545 26.7306C15.5138 26.6707 15.5004 26.6248 15.5159 26.6029C15.5315 26.5807 15.5763 26.581 15.643 26.6054L15.6433 26.6057C15.6843 26.6165 15.7234 26.6343 15.759 26.6583C15.802 26.6904 15.852 26.7284 15.9067 26.7762C16.1602 27.0316 16.313 27.3799 16.3331 27.7504C16.3396 27.8559 16.3369 27.9621 16.3253 28.0673ZM22.7633 28.0381C22.5271 28.0749 22.2894 28.0974 22.0508 28.1056C21.7429 28.1177 21.4355 28.0714 21.1432 27.9684C21.0424 27.9291 20.9464 27.8775 20.8573 27.8147C20.6456 27.951 20.4181 28.0584 20.181 28.1338L20.0133 28.2112L19.9654 28.0473H19.9652C19.8841 27.7799 19.9071 27.489 20.0288 27.2393C20.1191 27.0662 20.1969 27.0111 20.2241 27.0228C20.2513 27.0345 20.2241 27.148 20.199 27.302V27.3017C20.175 27.4506 20.1756 27.603 20.2013 27.7517C20.3906 27.6781 20.5646 27.5663 20.7135 27.4221L20.8202 27.3017L20.9656 27.41C21.0606 27.4845 21.1653 27.5444 21.2762 27.5881C21.7567 27.7171 22.2521 27.7719 22.7472 27.7517C23.1464 27.7586 23.4008 27.8093 23.4008 27.8648C23.4005 27.9199 23.1613 27.9732 22.764 28.0381L22.7633 28.0381ZM32.3156 25.3309C32.2875 25.5024 32.2151 25.6621 32.1066 25.7926C31.9682 25.9618 31.7971 26.0981 31.6052 26.1919C30.777 26.6226 29.5538 26.7237 28.2467 26.8536C27.7495 26.904 27.2708 26.9521 26.8373 27.0361C26.6325 27.0741 26.4309 27.1296 26.2348 27.2022C26.0686 27.2548 25.9176 27.3517 25.7968 27.4839L25.6652 27.6569L25.5405 27.4766H25.5402C25.4954 27.4062 25.4452 27.3403 25.3896 27.2792C25.3668 27.2503 25.3444 27.224 25.3214 27.1974H25.3217C25.1991 27.3273 25.0565 27.4341 24.8998 27.5124C24.7381 27.5942 24.559 27.6306 24.3802 27.6183C24.2687 27.611 24.1601 27.5774 24.0627 27.52C23.999 27.4839 23.9673 27.456 23.9724 27.443C23.9774 27.43 24.0178 27.4284 24.0881 27.4379C24.1846 27.456 24.283 27.4611 24.3808 27.4525C24.5288 27.4351 24.6714 27.3834 24.7982 27.3007C24.9647 27.1895 25.1082 27.044 25.22 26.8726L25.3381 26.6948L25.4607 26.8945C25.5283 26.9791 25.6009 27.0586 25.6787 27.1325C25.8072 27.0181 25.9528 26.9268 26.1098 26.8631C26.3233 26.7737 26.5445 26.7053 26.77 26.6587C27.2472 26.5602 27.7288 26.4901 28.2135 26.4492C29.5275 26.3215 30.7282 26.2575 31.4972 25.9299C31.7986 25.8332 32.0449 25.6019 32.1714 25.2964C32.1959 25.2073 32.2127 25.1164 32.2213 25.0245C32.2303 24.957 32.2393 24.9212 32.2515 24.9183C32.2635 24.9158 32.2791 24.9503 32.297 25.0191V25.0194C32.3224 25.1208 32.3288 25.227 32.3156 25.3309Z" fill="#FF2A00"/>
<path d="M34.238 18.9864C33.3255 19.0723 32.3379 18.8124 31.4277 18.9099C29.8056 19.0747 28.2246 19.5296 26.7563 20.2532C24.9608 21.1353 22.638 22.156 21.1123 23.7179C22.1771 23.7528 23.1216 23.1145 24.234 23.3141C25.7391 23.5834 27.5645 23.7898 29.0403 23.2701C30.2595 22.843 31.6512 23.4813 32.7172 22.725C33.9115 21.8732 35.3187 20.5407 34.238 18.9864ZM30.4242 22.1053C30.1995 22.2264 29.9363 22.2484 29.6953 22.1671C29.3956 22.079 29.1027 21.8702 28.7872 21.7843C28.7486 21.7773 28.7077 21.7681 28.6715 21.7611L28.5623 21.754C28.5216 21.7565 28.4782 21.7586 28.4376 21.7632C28.4074 21.7794 28.3772 21.7748 28.3472 21.8005C28.1974 21.9112 28.0676 22.0478 27.9635 22.204C27.8753 22.3208 27.7757 22.4281 27.6662 22.5244C27.5442 22.6296 27.3982 22.7014 27.2415 22.7332C27.0139 22.7617 26.783 22.717 26.5811 22.6058C26.4489 22.7803 26.2607 22.9017 26.0496 22.9488C25.9257 22.972 25.7977 22.9472 25.6909 22.8791C25.6051 22.8256 25.5363 22.7476 25.4935 22.6544C25.4388 22.5394 25.4122 22.4125 25.4164 22.2848C25.4253 22.2034 25.4367 22.1594 25.455 22.157C25.5001 22.1457 25.5154 22.345 25.6637 22.5492V22.5489C25.7352 22.6593 25.8686 22.7091 25.993 22.6721C26.165 22.5993 26.3059 22.466 26.3899 22.2964L26.4671 22.1664L26.6149 22.2386H26.6146C26.7848 22.3658 27.0019 22.408 27.2056 22.3535C27.4096 22.2991 27.5786 22.1536 27.6659 21.9576C27.8008 21.7586 27.9737 21.5896 28.1744 21.4608C28.2363 21.4297 28.3021 21.4061 28.3697 21.3914L28.3718 21.3682L28.3969 21.345H28.4014L28.4128 21.3563L28.4307 21.3587L28.4672 21.345H28.542C28.603 21.3532 28.6634 21.3655 28.7229 21.382C28.7795 21.3911 28.8321 21.426 28.8841 21.4376V21.4379C29.0636 21.5024 29.2353 21.5871 29.3965 21.6907C29.5218 21.7696 29.6516 21.8418 29.7847 21.9063C29.9681 21.9922 30.1745 22.0124 30.3704 21.9644C30.5157 21.9295 30.6019 21.8992 30.6177 21.9249C30.6309 21.9427 30.574 22.0191 30.4242 22.1053ZM33.92 20.3603C33.879 20.4978 33.8103 20.6253 33.7178 20.7339C33.5171 20.9741 33.2468 21.1423 32.9462 21.2141C32.7541 21.2597 32.5543 21.2548 32.365 21.2004C32.3516 21.2762 32.3279 21.3496 32.2944 21.4183L32.2059 21.5969L32.0552 21.4761C31.8619 21.322 31.6349 21.186 31.5033 21.061C31.3876 20.9356 31.3376 20.8476 31.358 20.8219C31.3786 20.7962 31.4716 20.8332 31.6191 20.9124C31.6986 20.9402 31.7737 20.9775 31.8826 21.0237C31.9301 21.0448 31.9801 21.0655 32.0303 21.0912C32.0324 21.0448 32.0324 20.9916 32.0303 20.9371L32.0145 20.633L32.2959 20.7769V20.7766C32.4715 20.8619 32.671 20.8809 32.8588 20.8301C33.3332 20.7231 33.7104 20.2964 33.6487 20.0411C33.6185 19.9213 33.55 19.8152 33.4537 19.7397C33.3786 19.6721 33.3311 19.6302 33.3422 19.6027C33.3511 19.5795 33.4148 19.5718 33.5264 19.6073V19.607C33.5952 19.6287 33.6598 19.6626 33.7169 19.7069C33.8037 19.7699 33.8701 19.858 33.9078 19.9598C33.9544 20.0885 33.9589 20.2288 33.9203 20.3603L33.92 20.3603Z" fill="#FF2A00"/>
</svg>
