<svg width="20" height="20" viewBox="0 0 20 20" fill="none" xmlns="http://www.w3.org/2000/svg">
<path d="M1.875 15.7143C1.53125 15.7143 1.25 16.0357 1.25 16.4286C1.25 18.4018 2.64844 20 4.375 20H15.625C17.3516 20 18.75 18.4018 18.75 16.4286C18.75 16.0357 18.4688 15.7143 18.125 15.7143H1.875ZM1.25 7.58929C1.25 8.13393 1.63672 8.57143 2.10938 8.57143H17.8906C18.3672 8.57143 18.75 8.12946 18.75 7.58929C18.75 6.82143 18.6484 6.05357 18.3281 5.37946C17.4609 3.55804 15.1133 0 10 0C4.88672 0 2.53906 3.55357 1.67188 5.37946C1.35156 6.05357 1.25 6.82143 1.25 7.58929ZM0 12.1429C0 12.933 0.558594 13.5714 1.25 13.5714H18.75C19.4414 13.5714 20 12.933 20 12.1429C20 11.3527 19.4414 10.7143 18.75 10.7143H1.25C0.558594 10.7143 0 11.3527 0 12.1429ZM10 1.78571C10.5195 1.78571 10.9375 2.26339 10.9375 2.85714C10.9375 3.45089 10.5195 3.92857 10 3.92857C9.48047 3.92857 9.0625 3.45089 9.0625 2.85714C9.0625 2.26339 9.48047 1.78571 10 1.78571ZM4.6875 4.28571C4.6875 3.69196 5.10547 3.21429 5.625 3.21429C6.14453 3.21429 6.5625 3.69196 6.5625 4.28571C6.5625 4.87946 6.14453 5.35714 5.625 5.35714C5.10547 5.35714 4.6875 4.87946 4.6875 4.28571ZM14.375 3.21429C14.8945 3.21429 15.3125 3.69196 15.3125 4.28571C15.3125 4.87946 14.8945 5.35714 14.375 5.35714C13.8555 5.35714 13.4375 4.87946 13.4375 4.28571C13.4375 3.69196 13.8555 3.21429 14.375 3.21429Z" fill="#FF0000"/>
</svg>
