<svg width="16" height="15" viewBox="0 0 16 15" fill="none" xmlns="http://www.w3.org/2000/svg">
<path d="M14.2354 7.00221H9.01577C8.49084 7.00221 8.06674 6.58173 8.06674 6.06129V0.886247C8.06674 0.365802 8.4938 -0.0605505 9.0128 0.0070779C12.1861 0.42461 14.701 2.91804 15.1222 6.06423C15.1904 6.57879 14.7604 7.00221 14.2354 7.00221ZM5.64079 1.03915C6.17758 0.927412 6.6432 1.36259 6.6432 1.90655V7.70789C6.6432 7.87255 6.70251 8.03133 6.80631 8.15777L10.724 12.8447C11.071 13.2593 10.9969 13.8856 10.5194 14.1414C9.50808 14.6883 8.34848 15 7.11771 15C3.18814 15 0 11.8391 0 7.94312C0 4.547 2.41706 1.71249 5.64079 1.03915ZM13.2093 8.41358H15.1073C15.656 8.41358 16.0949 8.87522 15.9822 9.40742C15.6797 10.8306 14.9442 12.0949 13.9181 13.0594C13.5533 13.4034 12.9809 13.3299 12.6606 12.9447L10.1576 9.95433C9.6445 9.3398 10.0864 8.41358 10.8871 8.41358H13.2063H13.2093Z" fill="#676767"/>
</svg>
