<svg width="78" height="61" viewBox="0 0 78 61" fill="none" xmlns="http://www.w3.org/2000/svg">
<path d="M0.104492 32C2.06997 32 4.03544 32 6.06047 32C6.06047 35.3955 6.06047 38.7909 6.06047 42.2893C5.29964 42.7098 5.29964 42.7098 4.52345 43.1389C4.05724 43.4178 4.05724 43.4178 3.59292 43.6998C3.05349 44.029 2.50916 44.3503 1.96494 44.6718C1.83559 44.7483 1.70632 44.8249 1.57712 44.9016C1.38736 45.0143 1.19738 45.1266 1.00735 45.2388C0.949712 45.2731 0.892079 45.3075 0.832699 45.3428C0.59096 45.4851 0.372981 45.5996 0.104492 45.6876C0.104492 41.1707 0.104492 36.6538 0.104492 32Z" fill="black"/>
<path d="M51.4019 28.0371C51.4019 37.8808 51.4019 47.7246 51.4019 57.8666C45.4459 57.8666 45.4459 57.8666 43.1404 56.5451C42.6889 56.2953 42.2374 56.0468 41.7835 55.8017C41.5632 55.682 41.3429 55.5623 41.1226 55.4425C41.0217 55.3877 40.9208 55.3328 40.8168 55.2763C40.188 54.9336 39.5652 54.5807 38.943 54.2267C37.7902 53.5708 36.6364 52.9175 35.4732 52.2795C34.7252 51.8692 33.978 51.4575 33.2337 51.0405C33.1588 50.9987 33.0839 50.9569 33.0068 50.9138C32.8588 50.8307 32.7119 50.7458 32.5662 50.6589C32.3529 50.5411 32.1505 50.4446 31.9271 50.3501C30.9701 49.915 30.9701 49.915 30.7617 49.4831C30.6308 48.9789 30.6636 48.4616 30.6806 47.9459C30.681 47.7727 30.6807 47.5996 30.6799 47.4265C30.6795 46.9583 30.688 46.4906 30.698 46.0225C30.7071 45.5327 30.7079 45.0429 30.7096 44.553C30.7141 43.6262 30.7259 42.6996 30.7404 41.7729C30.7565 40.7176 30.7644 39.6622 30.7716 38.6068C30.7867 36.4364 30.8131 34.2664 30.8441 32.0962C32.8096 32.0962 34.7751 32.0962 36.8001 32.0962C36.8001 36.9869 36.8001 41.8776 36.8001 46.9165C36.9586 46.9788 37.1171 47.0411 37.2804 47.1053C37.4769 47.2087 37.6717 47.3154 37.8651 47.4243C37.9202 47.4552 37.9752 47.4862 38.032 47.518C38.21 47.6181 38.3876 47.7186 38.5653 47.8192C38.689 47.889 38.8127 47.9587 38.9364 48.0285C39.6296 48.4199 40.3191 48.8165 41.0026 49.2241C41.6154 49.5878 42.2344 49.9415 42.8522 50.2971C42.9443 50.3502 42.9443 50.3502 43.0384 50.4044C43.7938 50.84 43.7938 50.84 44.5526 51.2699C44.6572 51.3285 44.7618 51.3872 44.8695 51.4476C44.8683 51.3008 44.8683 51.3008 44.867 51.151C44.847 48.7677 44.8354 46.3844 44.8324 44.001C44.8308 42.8484 44.8265 41.6959 44.8158 40.5434C44.8065 39.5386 44.8023 38.534 44.8042 37.5292C44.805 36.9972 44.8032 36.4655 44.7954 35.9336C44.7882 35.4325 44.7877 34.9318 44.7924 34.4307C44.7929 34.2472 44.791 34.0637 44.7864 33.8802C44.7545 32.5303 44.7545 32.5303 45.108 32.1195C45.4514 31.8268 45.83 31.618 46.2378 31.4242C46.46 31.3146 46.6573 31.1789 46.8572 31.0342C46.9193 30.991 46.9814 30.9478 47.0454 30.9033C47.106 30.8609 47.1666 30.8184 47.2291 30.7746C47.3312 30.7035 47.3312 30.7035 47.4353 30.631C47.7502 30.4115 48.0643 30.1911 48.3777 29.9697C49.0371 29.504 49.701 29.0451 50.3692 28.5917C50.4895 28.5094 50.4895 28.5094 50.6123 28.4254C50.7245 28.3497 50.7245 28.3497 50.839 28.2724C50.9394 28.2043 50.9394 28.2043 51.0417 28.1348C51.2098 28.0371 51.2098 28.0371 51.4019 28.0371Z" fill="black"/>
<path d="M53.5156 32.0958C55.8001 32.0646 58.0846 32.0335 60.4383 32.0014C61.1574 31.9876 61.8765 31.9739 62.6174 31.9597C63.5011 31.9529 63.5011 31.9529 63.916 31.9516C64.2035 31.9502 64.4905 31.9446 64.7779 31.9363C67.3234 31.8661 67.3234 31.8661 68.0401 32.4211C68.3585 32.7243 68.6139 33.0531 68.8535 33.4188C69.053 33.7097 69.2931 33.9494 69.5403 34.202C69.7066 34.3809 69.8727 34.5598 70.0387 34.7389C70.1228 34.8293 70.2068 34.9197 70.2935 35.0129C72.1521 37.015 72.1521 37.015 72.1521 37.1932C67.9675 37.1932 63.783 37.1932 59.4716 37.1932C59.4716 38.4704 59.4716 39.7476 59.4716 41.0635C59.8546 41.0504 60.2376 41.0372 60.6323 41.0237C60.9404 41.0164 61.2486 41.0102 61.5568 41.0049C61.8807 40.9989 62.2043 40.991 62.5281 40.978C64.7931 40.8939 64.7931 40.8939 65.3385 41.2979C65.6182 41.5656 65.8082 41.8658 66.004 42.1963C66.1048 42.3165 66.2081 42.4348 66.3154 42.5495C66.3999 42.648 66.4842 42.7465 66.5684 42.8452C66.9712 43.3125 67.3855 43.7668 67.8112 44.214C67.8639 44.2694 67.9166 44.3248 67.971 44.3819C68.0218 44.4353 68.0726 44.4887 68.1249 44.5437C68.6198 45.0639 69.0589 45.5663 69.4623 46.1609C66.1654 46.1609 62.8684 46.1609 59.4716 46.1609C59.4716 48.0612 59.4716 49.9614 59.4716 51.9192C60.0394 51.9104 60.6072 51.9016 61.1921 51.8926C61.5524 51.8888 61.9127 51.8851 62.273 51.8823C62.8446 51.8778 63.4161 51.8725 63.9876 51.8622C64.4486 51.854 64.9094 51.8495 65.3704 51.8475C65.546 51.8461 65.7216 51.8434 65.8972 51.8393C67.274 51.8086 67.274 51.8086 67.6966 52.0819C67.8673 52.2719 67.9908 52.4545 68.1174 52.6743C68.2056 52.7751 68.2966 52.8737 68.3906 52.9693C69.1349 53.761 69.8548 54.5704 70.5671 55.3899C70.9187 55.7938 71.2763 56.1916 71.6402 56.5848C71.7678 56.7334 71.7678 56.7334 71.7678 56.8278C65.7446 56.8278 59.7214 56.8278 53.5156 56.8278C53.5156 48.6662 53.5156 40.5047 53.5156 32.0958Z" fill="black"/>
<path d="M14.1286 32.0957C16.0941 32.0957 18.0596 32.0957 20.0846 32.0957C20.0846 40.2573 20.0846 48.4189 20.0846 56.8278C18.1191 56.8278 16.1537 56.8278 14.1286 56.8278C14.1286 53.2142 14.1286 49.6007 14.1286 45.8777C13.098 46.4403 12.0808 47.0002 11.0786 47.6063C10.8467 47.7458 10.6146 47.885 10.3825 48.0241C10.297 48.0754 10.297 48.0754 10.2098 48.1278C9.58948 48.4994 8.96414 48.8626 8.33768 49.2241C8.18455 49.3125 8.03269 49.4031 7.88233 49.496C7.59628 49.6536 7.59628 49.6536 7.2371 49.7855C6.81203 49.9556 6.44222 50.1421 6.15531 50.5031C5.88338 51.2417 5.97457 52.0857 5.99358 52.8575C5.99411 53.0891 5.99401 53.3207 5.9933 53.5523C5.99313 54.16 6.00157 54.7673 6.01184 55.375C6.02079 55.9957 6.02157 56.6165 6.02304 57.2372C6.02712 58.4539 6.04003 59.6703 6.05925 60.8868C5.89094 60.7969 5.72266 60.7069 5.5544 60.6169C5.46068 60.5668 5.36697 60.5167 5.27042 60.4651C4.93329 60.2831 4.6009 60.0943 4.27005 59.9016C4.17049 59.8438 4.17049 59.8438 4.06892 59.7848C3.83557 59.649 3.60249 59.5128 3.36945 59.3765C3.22368 59.2913 3.22368 59.2913 3.07497 59.2044C2.75666 59.0182 2.4386 58.8316 2.12062 58.6449C2.01974 58.5858 1.91886 58.5268 1.81493 58.4659C1.71767 58.4086 1.62042 58.3514 1.52022 58.2924C1.43452 58.242 1.34883 58.1917 1.26054 58.1398C1.16395 58.0807 1.06736 58.0215 0.967847 57.9605C0.861789 57.9073 0.861788 57.9073 0.753588 57.8531C0.151474 57.5219 0.151474 57.5219 0.024663 57.1858C-0.00326611 56.9298 -0.00379185 56.6859 0.00511768 56.4286C0.0049283 56.2849 0.0049283 56.2849 0.0047351 56.1382C0.00533602 55.8224 0.0120529 55.507 0.0188378 55.1913C0.0204509 54.972 0.0216813 54.7527 0.0225448 54.5334C0.0258417 53.957 0.0343309 53.3807 0.0439034 52.8043C0.052757 52.2159 0.0566984 51.6274 0.0610535 51.0389C0.0703184 49.8848 0.0850692 48.7308 0.103269 47.5768C0.165453 47.5424 0.227637 47.508 0.291705 47.4726C0.578317 47.314 0.864831 47.1552 1.15134 46.9964C1.24913 46.9424 1.34692 46.8883 1.44766 46.8326C2.04315 46.5024 2.63398 46.1659 3.21935 45.8187C3.30447 45.7683 3.38959 45.7178 3.47729 45.6659C3.54746 45.6241 3.61762 45.5823 3.68992 45.5392C4.36735 45.137 5.0483 44.7406 5.72903 44.3437C5.86231 44.266 5.99558 44.1883 6.12886 44.1106C6.75163 43.7474 7.37458 43.3846 7.99779 43.0222C9.05219 42.409 10.1058 41.7946 11.1567 41.1755C11.2467 41.1225 11.3368 41.0695 11.4296 41.0149C11.6147 40.9057 11.7974 40.7927 11.978 40.6765C12.2488 40.5272 12.4625 40.4439 12.7542 40.3554C13.2973 40.1616 13.7214 39.9533 14.0326 39.4587C14.3271 38.3342 14.2322 37.1249 14.1958 35.9742C14.1818 35.4599 14.1807 34.9454 14.1775 34.431C14.1711 33.652 14.1483 32.875 14.1286 32.0957Z" fill="black"/>
<path d="M28.7319 28.0361C28.7319 37.5684 28.7319 47.1006 28.7319 56.9217C26.6396 56.9217 24.5474 56.9217 22.3917 56.9217C22.3578 53.8006 22.3294 50.6798 22.3132 47.5586C22.3113 47.1899 22.3093 46.8211 22.3072 46.4524C22.3068 46.379 22.3064 46.3055 22.306 46.2299C22.2993 45.0424 22.2872 43.8549 22.2731 42.6675C22.2587 41.4483 22.2502 40.2293 22.2471 39.01C22.245 38.2581 22.2383 37.5064 22.2258 36.7546C22.2167 36.1773 22.2158 35.6003 22.2178 35.0229C22.2174 34.7866 22.2144 34.5504 22.2085 34.3141C22.1671 32.5736 22.1671 32.5736 22.5434 32.0883C22.9042 31.7585 23.3053 31.5345 23.7499 31.3311C23.9847 31.2189 24.1865 31.0752 24.3929 30.9189C24.4566 30.8732 24.5203 30.8275 24.5859 30.7804C24.6797 30.7128 24.6797 30.7128 24.7753 30.6439C25.4562 30.1566 26.147 29.6856 26.8441 29.2211C27.3571 28.8786 27.8594 28.526 28.354 28.1582C28.5398 28.0361 28.5398 28.0361 28.7319 28.0361Z" fill="black"/>
<path d="M22.0076 6.32546C21.9442 6.38192 21.8807 6.43838 21.8154 6.49655C21.4072 6.89994 21.081 7.36518 20.7587 7.83581C20.7072 7.91089 20.6557 7.98597 20.6026 8.06332C20.2032 8.73127 20.1729 9.43955 20.2784 10.1957C20.4519 10.5401 20.6185 10.7468 20.9508 10.9509C22.3352 11.4044 24.0019 10.566 25.2808 10.0794C26.7821 9.52115 28.2942 9.43332 29.7985 10.0309C31.015 10.5862 31.8977 11.4521 32.4185 12.6737C32.8698 13.898 32.7071 14.9969 32.1911 16.1708C31.6737 17.1877 30.7828 18.0091 29.9689 18.7977C29.3854 19.363 28.8424 19.9357 28.3478 20.5794C28.2703 20.6765 28.1928 20.7736 28.1129 20.8737C27.2348 22.0011 26.5134 23.3303 26.2344 24.7329C25.8806 24.4485 25.7783 24.1114 25.7316 23.6716C25.6706 22.5887 25.7077 21.6488 26.2344 20.6738C26.2658 20.6156 26.2972 20.5574 26.3296 20.4975C26.6405 19.9277 26.9714 19.3699 27.3121 18.8169C27.8592 17.9205 28.4564 16.849 28.2517 15.7652C28.1123 15.3341 27.941 15.07 27.5853 14.7799C26.6104 14.2911 25.4726 14.5423 24.4692 14.8153C24.2704 14.8675 24.0715 14.9195 23.8725 14.9713C23.7811 14.9951 23.6897 15.019 23.5955 15.0436C22.2332 15.3844 20.8016 15.2377 19.5834 14.5306C18.7379 13.9533 18.0414 13.288 17.5886 12.3669C17.5563 12.3107 17.524 12.2544 17.4907 12.1965C17.131 11.4704 17.1698 10.4542 17.3927 9.69094C18.1227 8.11748 19.6003 7.12787 21.1456 6.41949C21.4502 6.31921 21.6886 6.30724 22.0076 6.32546Z" fill="#FF2A00"/>
<path d="M25.2722 17.5587C25.2127 17.6089 25.2127 17.6089 25.1521 17.6601C24.1662 18.5532 23.4192 19.8686 23.328 21.196C23.3004 22.6463 23.7446 23.6839 24.4804 24.9247C24.9839 25.7903 25.0486 26.7313 24.8072 27.6998C24.3805 28.787 23.6195 29.5296 22.6784 30.208C22.6784 29.9248 22.6784 29.9248 22.7715 29.6191C23.0309 28.6893 22.9624 27.8152 22.4769 26.9767C22.2294 26.6226 21.9515 26.3117 21.6506 26.0006C20.513 24.8202 19.7409 23.6368 19.7632 21.9789C19.8043 20.8498 20.3031 20.0992 21.0956 19.2951C21.9886 18.5024 24.0174 17.1599 25.2722 17.5587Z" fill="#FF2A00"/>
<path d="M20.3726 0C20.5302 0.0934532 20.5302 0.0934532 20.6909 0.188794C21.1777 0.403632 21.6312 0.413785 22.1558 0.412988C22.2715 0.41317 22.2715 0.41317 22.3896 0.413356C22.8254 0.405636 23.199 0.346903 23.6214 0.23249C24.6868 0.0103727 26.0934 0.0112847 27.0709 0.515497C27.8405 1.02749 28.2458 1.68692 28.5381 2.54872C28.6661 3.86663 28.2023 4.96849 27.3887 5.9968C26.2478 7.31254 24.661 8.29396 22.894 8.481C22.8228 8.48586 22.7516 8.49073 22.6782 8.49575C22.9164 8.25649 23.1597 8.03563 23.4227 7.82317C24.2197 7.13877 24.7812 6.29536 25.2719 5.38064C25.3068 5.31578 25.3418 5.25092 25.3777 5.1841C25.6308 4.63226 25.658 3.98999 25.5601 3.3983C25.3862 3.14383 25.2639 2.96957 24.9837 2.83192C24.8231 2.82303 24.6621 2.81947 24.5012 2.81864C22.0764 2.78217 22.0764 2.78217 21.0931 1.91744C20.6422 1.42912 20.3948 0.881568 20.3486 0.224193C20.3566 0.150209 20.3645 0.0762257 20.3726 0Z" fill="#FB8104"/>
<rect x="74.5303" y="53.752" width="2.93427" height="3.01979" fill="#F04905"/>
</svg>
