<svg width="15" height="22" viewBox="0 0 15 22" fill="none" xmlns="http://www.w3.org/2000/svg">
<path d="M9.0625 4.125H5.9375C5.41797 4.125 5 3.66523 5 3.09375C5 2.52227 5.41797 2.0625 5.9375 2.0625H9.0625C9.58203 2.0625 10 2.52227 10 3.09375C10 3.66523 9.58203 4.125 9.0625 4.125ZM9.0625 6.1875C10.5117 6.1875 11.7031 4.98438 11.8594 3.4375H12.5C12.8438 3.4375 13.125 3.74688 13.125 4.125V19.25C13.125 19.6281 12.8438 19.9375 12.5 19.9375H2.5C2.15625 19.9375 1.875 19.6281 1.875 19.25V4.125C1.875 3.74688 2.15625 3.4375 2.5 3.4375H3.14062C3.29687 4.98438 4.48828 6.1875 5.9375 6.1875H9.0625ZM11.4023 1.375C10.8984 0.545703 10.0391 0 9.0625 0H5.9375C4.96094 0 4.10156 0.545703 3.59766 1.375H2.5C1.12109 1.375 0 2.6082 0 4.125V19.25C0 20.7668 1.12109 22 2.5 22H12.5C13.8789 22 15 20.7668 15 19.25V4.125C15 2.6082 13.8789 1.375 12.5 1.375H11.4023Z" fill="#676767"/>
</svg>
