<svg width="15" height="15" viewBox="0 0 15 15" fill="none" xmlns="http://www.w3.org/2000/svg">
<path d="M10.7578 12.085L2.91504 4.24219C2.25879 5.16211 1.875 6.28711 1.875 7.5C1.875 10.6055 4.39453 13.125 7.5 13.125C8.71582 13.125 9.84082 12.7412 10.7578 12.085ZM12.085 10.7578C12.7412 9.83789 13.125 8.71289 13.125 7.5C13.125 4.39453 10.6055 1.875 7.5 1.875C6.28418 1.875 5.15918 2.25879 4.24219 2.91504L12.085 10.7578ZM0 7.5C0 3.35742 3.35742 0 7.5 0C11.6426 0 15 3.35742 15 7.5C15 11.6426 11.6426 15 7.5 15C3.35742 15 0 11.6426 0 7.5Z" fill="#FF0000"/>
</svg>
